<?xml version="1.0" encoding="UTF-8"?>
<svg id="Capa_1" data-name="Capa 1" xmlns="http://www.w3.org/2000/svg" viewBox="0 0 2788.36 689.36">
  <defs>
    <style>
      .cls-1 {
        fill: #080808;
      }

      .cls-2 {
        fill: #060606;
      }

      .cls-3 {
        fill: #484847;
      }

      .cls-4 {
        fill: #0a0a0a;
      }

      .cls-5 {
        fill: #070707;
      }

      .cls-6 {
        fill: #242424;
      }

      .cls-7 {
        fill: #bd994f;
      }

      .cls-8 {
        fill: #1e1e1f;
      }
    </style>
  </defs>
  <g>
    <path class="cls-4" d="M2201.78,521.7c-5.42,11.9-.5,27.65-9.14,21.78-6.99-4.76-1.97-16.68,3.53-29.56,13.05-30.58,29.94-58.14,47.6-86.26,10.1-16.08,28.69-45.9,34.56-38.43.65.83,1.99,1.46,1.07,4.01-24.28,31.12-45.69,63.39-63.94,98.46l-13.67,30.01Z"/>
    <circle class="cls-8" cx="2062.04" cy="447.59" r="5.54"/>
    <circle class="cls-6" cx="2043.24" cy="447.21" r="5.42"/>
    <path class="cls-2" d="M1940.81,501.92c-.89-.06-1.76-.17-2.65-.36.96-.04,1.83.09,2.65.36Z"/>
    <path class="cls-2" d="M2239.48,388.33c-11.9-.94-48.5,60.79-61.35,83.44-19.19,11.92-58.91,31.74-70.02,22.07-2.38-2.08-2.53-10.66.81-11.49,12.13-2.99,32.48-4.1,28.86-16.55-5.07-17.37-34.24,10.24-36.73,11.54l-32.59,16.94c-3.04,1.56-10.41,2.74-11.8-.99-3.95-10.49,11.13-23.03,7.56-27.53-5.91-7.45-26.09,23.26-47.92,30.68,1.93-17,26.7-34.35,13.74-34.2-8.39.09-7.37,9.98-21.01,15.97l-36.94,16.23,12.73-30.05c.85-1.98-5.89-2-7.71-.49-24.41-14.29-36.84,22.15-89.37,36.62-4.63,1.28-14.64,4.4-17.02-.51-2.98-6.21,11.88-15.91,8.53-24.92-.93-2.51-4.78-4.21-10.02-6.04,5.84-7.75,13.81-14.56,9.75-20.12-.69-.95-2.4-2.47-5.16-1.96-8.58,1.56-17.56,10.8-15.8,19.99,1.06,5.5,8.28,7.99,12.66,10.56-2.12,9.52-12.3,17.93-8.01,25.32,4.72,8.12,21.01,6.23,32.29,1.04l34.18-15.79c-.34,4.13-.53,8.69,1.02,10.94,1.44,2.04,5.22,2.66,8.02,2.55,11.96-3.76,19.53-13.17,30.75-21.1-6.8,23.99-15.74,22.72-23.03,27.16-17.51,10.68-34.62,22.11-49.11,37.56-10.79,11.5-19.95,26.81-12.35,34.29,10.71,10.56,28.96-3.93,42.28-17.56,16.69-17.08,27.36-38.07,40.55-57.34,12.47-9.72,28.68-14.13,43.05-21.37-1.15,7.11-4.31,11.02-1.49,16.31,5.34,10.05,25.67-6.37,39.47-18.34.62,7.67-1.12,12.24,2.47,16.7,2.23,2.77,8.04,4.69,12.67,2.74l34.6-14.55c.04,3.84-.63,7.12.66,9.64,4.63,9.09,22.18,8.31,33.48,3.46l39.75-17.06c-9.88,20.61-28.49,48.99-20.44,60.67,1.47,2.12,7.16,1.01,6.85-1.38-.85-6.67-.79-11.6,1.91-17.8,10.37-23.75,22.78-45.5,36.16-67.78,13.43-22.39,28.55-42.43,45.65-61.99,1.51-1.75-1.17-5.38-2.59-5.5ZM2130.04,468.8c-3.85,6.1-9.26,7.16-14.99,7.53,3.63-5.53,8.47-7.72,14.99-7.53ZM1888.91,575.89c-.13-26.24,39.54-52.03,65.26-65.22-13.57,23.62-42.78,67.41-65.26,65.22ZM1937.75,494.5c2.19-13.07,24.26-32.58,34.31-24.94-11.31,9.67-20.58,18.97-34.31,24.94Z"/>
    <path class="cls-2" d="M1486.35,425.59c-1.99-6.66-44.59-4.91-65.68-5.2l-30.45-.42,22.22-28.41c1.87-2.4,1.57-5.16-.44-6.33-5.76-3.37-22.22,21.2-31.72,34.8-24.13,1.82-70.33-1.91-68.52,6.86.31,1.49,1.69,2.42,3.72,2.32l60.54-2.82-27.87,42.13c-16.53,8.11-37.5,5.2-54.65,4.63-6.71-.2-7.96-5.85-11.11-8.26-8.24-6.27-15.72,3.44-22.07,6.6l-40.72,20.18c-14.21,7.04-42.81,14.15-46.54,9.09-3.53-4.84,6.44-12.83,8.52-20.84,1.4-5.46-4.56-9.64-10.54-10.31,4.2-5.72,8.28-9.62,10.58-16.06,1.01-2.8-.98-7.39-4.66-6.91-12.28,1.53-19.4,12.5-16.21,24.86-21.34,15.66-83.51,39.96-86.65,28.09-1.93-7.31,11.87-15.3,7.92-24.46-1.02-2.4-4.61-4.35-9.69-5.8l9.05-12.04c1.99-2.64,1.95-6.15.44-8.45-1.78-2.74-5.33-1.64-7.67-1.17-12.15,2.42-10.64,16-13.42,22.91-15.4,14.64-59.67,34.52-61.37,19.83-1.28-10.96,13.38-28.72,4.85-26.53l-4.68,1.2c-24.85-16.76-58.71,24.24-51.15,33.91,7.99,10.21,27.87-8.41,43.74-19.63-.3,8.12-1.72,13.72,2.82,18.25,12.72,12.72,50.48-9.5,70.9-22.37,2.5-1.59,8.03,2.06,8.41,4.61-6.26,9.26-12.88,18.08-7.31,25.02,11.1,13.87,76.74-13.62,99.02-30.83,2.89,1.18,5.15,2.69,7.42,5.07l-7.96,13.13c-2.13,3.51-2.02,7.84-.2,10.92,5.47,9.37,28.32,4.45,44.68-2.2l39.73-16.15c-1.15,7.31-1.68,12.21,1.09,16.02,2.2,3.02,8.34,4.74,13.07,3.18,12.17-3.96,21.56-13.68,22.8-27.98,19.05,4.37,38.21,3.59,58.61-.57l-13.91,25.83c-7.91,14.72-17.31,38.66-9.64,42.29,2.02.94,5.14.44,6.71-1.12,1.15-1.13-1.66-5.51-1.25-7.12,6.12-23.22,17.02-44.46,29.99-64.92l27.83-43.98c17.69-2.5,33.94-1.91,51.28-1.21,15.8.62,30.95.61,46.76,3.7,2.53.5,3.74-2.02,3.34-3.34ZM955.58,494.68c6.31-13.88,27.66-32.91,37.54-24.37-12.07,8.99-22.37,19.82-37.54,24.37ZM1258.23,496.99c-2.42-8.04,3.16-17.17,9.41-21.58,2.47-1.74,7.03-1.39,10.62-3.57,1.96,12.3-5.77,23.86-20.03,25.15Z"/>
    <g>
      <path class="cls-5" d="M1865.75,357.75c-19.56-15.42-120.46,79.35-145.97,107.35l-45.71,2.14c-11.94-1.55-21.98-4.4-34.48-1.47-23.64,5.56-49.52,21.75-43.29,28.07,6,6.07,9.68-7.89,24.4-11.22,14.94-3.37,29.78-6.29,45.35-6.63,13.67-.29,18.8,27.34-1.86,52.09-12.61,15.12-23.76,30.51-34.06,47.2-1.77,2.88-1.43,5.65.23,7.02,1.99,1.64,5.44.81,7.12-1.55l11.1-15.53c23.37-32.72,47.27-63.5,75.16-92.87,29.07-1.09,56.69-1.75,87.05-.69-10.18,17.53-18.13,34.18-26.5,51.87-8.83,18.68-25.22,49.08-19.24,58.09,1.31,1.97,6.12,2.07,6.51-.85,1.01-7.55,2.35-14.08,5.45-21.23,13.13-30.28,28.27-58.86,43.92-87.74,14.2-1.31,26.31,4.66,28.65.78.45-.74.27-3.27-1.37-3.5l-24.26-3.42,35.19-67.44c7.18-13.75,14.56-34.22,6.61-40.48ZM1684.43,503.95c.34-11.29,2.58-19.88-5.39-29.72l33.82-1.88-28.43,31.6ZM1814.95,465.06l-83-.2c28.83-30.75,61.27-60.05,96.39-85.9,10.22-7.52,20.17-14.02,33.39-16.14-.93,12.29-5.26,21.75-10.27,31.46l-36.51,70.78Z"/>
      <path class="cls-3" d="M1653.3,470.47c-5.37,2.43-10.63,4.21-17.45,2.33,5.36-2.43,10.65-4.22,17.45-2.33Z"/>
    </g>
    <path class="cls-2" d="M970.07,518.81c-3.28-5.67-83.28-14.63-110.98-15.08,37.51-44.4,67.28-92.66,92.03-144.29,1.53-3.2-.28-6.73-2.1-7.29-1.81-.59-4.93.6-5.95,2.91-7.86,17.75-17.02,33.65-26.59,50.71-19.48,34.73-40.7,67.28-66.84,97.61-28.16.45-59.76-.15-83.68,12.56-4.66,2.63-7.23,6.6-6.91,11.42,1.13,16.59,49.16,23.67,77.54-2.02l15.69-14.19c39.56.06,77.84,4.99,116.29,12.34,2.14-2.32,1.97-3.88,1.51-4.66ZM767.55,527.69c-.83-3.25,5.06-6.85,8.08-7.82,21.29-6.67,42.36-9.39,65.57-8.72-20.75,20.97-51.32,33.69-73.65,16.53Z"/>
    <path class="cls-4" d="M2355.25,469.4c-2.55-2.3-40.27,12.15-67.06.19-3.08-3.32-5.4-10.28-13.28-6.69-19.97,9.09-30.25,32.21-21.96,38.96,1.99,1.61,5.18,2.99,8.58,2.51,14.67-2.07,25.6-13.72,26.62-28.72,26.86,7.5,74.33.23,67.09-6.26ZM2280.43,479.74c-4.66,9.34-10.5,18.2-21.67,17.08.49-11.26,7.82-21.35,17.99-24.96,2.64-.93,5.38,4.48,3.68,7.88Z"/>
    <path class="cls-1" d="M1508.95,470.9c-2.27-4.69-28.83,15.91-55.72,23.97-4.46,1.34-13.06,1.88-14.34-3.53-2.07-8.75,5.1-17.55,7.48-24.64-.09-4.02-6.42-1.93-8.4-1.8-5.45-3.58-13.77-5.7-21.07-2.64-21.42,8.97-37.22,31.99-27.91,38.21,9.88,6.59,29.36-13.38,42.81-22.67-1.23,7.82-2.42,13.66,1.17,18.34,11.42,14.96,52.81-8.15,73.99-21.26,1.8-1.09,2.63-2.66,1.99-3.99ZM1395.43,493.87c6.6-15.57,30.59-33.69,36.47-22.72-12.98,6.99-22.32,20.19-36.47,22.72Z"/>
  </g>
  <g>
    <path class="cls-7" d="M2435.71,248.63c-.66-27.04-17.95-48.7-44.59-54.31l-49.11-1.99c-8.47-.34-16.13-1.12-24.39,1.36l9.6,4.4c2.89,1.32,3.06,5.45,3.04,9.03l-.24,88.81c-.02,10.61-14.34,6.86-10.68,12.7l62.08-.5c32.6-.26,55.06-27.41,54.28-59.5ZM2413.95,259.82c-1.41,26.99-20.7,45.6-47.7,43.27-4.62-.4-9.98,1.23-15.94-1.5l-.02-104.31c34.24-2.94,56.84,6.88,63.09,39.65,1.5,7.85,1,14.56.57,22.9Z"/>
    <path class="cls-7" d="M2571.82,300.32l-32.69-47.73c20.8-4.55,32.43-23.78,23.84-42.09-5.74-12.25-20.51-18.39-33.91-18.22l-55.11.68c7.83,4.39,12.94,5.96,12.92,14.13l-.23,86.96c-.03,11.12-8.74,8.59-12.32,13.83l41.87,1.08c.4-.55.58-2.58.2-4.18-6.15.69-10.44-3.04-10.44-8.94l.04-39.53c4.8-1.39,12.87-2.29,15.8,2.24l27.2,41.97c6.9,10.65,21.1,9.7,35.22,6.75l-12.41-6.95ZM2533.95,246.8c-8.5,5.65-18.98,3.27-28.05,2.86l-.04-52.62c9.98-.09,20.33-.89,28.89,4.63,14.81,9.56,14.5,34.97-.8,45.13Z"/>
    <path class="cls-7" d="M2191.48,309l-31.38-.07-.27-4.39c3.66.57,6.37.2,8.62-1.37,2.22-1.56,4.09-5.3,4.1-9.16l.21-86.93c.03-13.52-15.8-8.93-12.2-14.93l27.45.63,70.95,84.07.51-69.46c.1-13.17-13.65-10.38-12.74-14.36.23-1.01,3.38-.43,4.31-.45l27.62-.65c.04,1.98-.31,3.39-.77,3.74-6.64.08-11,4.78-11,11.45l-.02,102.93c-4.55,1.4-5.7-.68-7.79-3.16l-78.18-92.75-1.28,81.86c1.26,5.57,4.38,9.11,10.73,8.55.61.12,1.73,1.76,1.13,4.46Z"/>
    <path class="cls-7" d="M1811.46,295.08c-.03,4.99,2.81,8.15,7.02,8.12l22.77-.12c15.08-.08,23.94-9.06,30.86-24.27,3.46,11-1.94,19.45-1.94,30.13l-90.83-.81c9.22-5.47,13.23-6.88,13.2-16.12l-.28-86.14c-.02-5.98-3.41-10.72-10.06-10.1-.79-.82-.45-3.34.05-3.33l71.96-.2c3.83-.01,7.54-2.07,11.38.2.46,8.95,2.87,17-.45,27.14-4.21-12.25-9.56-21.37-21.04-21.63l-32.56-.73.06,48.03c10.64,1.18,20.48,1.63,29.03-2.62,4.92-2.45,2.39-8.65,8.55-13.31.06,13.77,1.64,25.91-1.01,39.5-3.93-7.21-3.42-14.78-10.98-16.51-7.83-1.79-16.39-1.5-25.46-.45l-.26,43.21Z"/>
    <path class="cls-7" d="M2682.19,308.95l43.68-1.38c-6.31-4.1-10.58-4.83-13.13-10.66l-48.13-110.02-44.59,108.84c-2.21,5.4-6.44,8.75-12.28,9.18-.69,1.43-.49,3.42,0,4.12l29.79-.04c-.21-2.12.18-3.03-.07-3.57-.26-.57-1.96-1-3.21-.94-4.26.2-8.23-4.32-6.48-8.59l10.77-26.16,42,.37c4.86,10.45,9.39,19.96,11.55,31.45-3.34,2.94-7.68,2.18-9.91,7.41ZM2640.14,264.2l18.72-45.62,18.99,45.03-37.71.58Z"/>
    <path class="cls-7" d="M1606.94,301.69l-50.91-114.41-42.85,103.21c-3.47,8.35-6.29,13.06-17.53,16.8,11.66,3.64,19.57.36,30.35,1.76,2.69.35,2.65-.46,2.51-2.26-.27-3.65-6.17-.81-8.54-4.42-.85-1.28-1.86-4.45-1.06-6.48l10.21-25.83,44.65.55,9.19,25.71c.93,2.61.12,5.6-1.69,6.98-3.49,2.66-7.98.64-7.18,5.56l42.78-.35c-2.23-5.32-6.66-4.55-9.94-6.83ZM1531.33,264.38l18.86-46.55,19.69,46.12-38.55.43Z"/>
    <path class="cls-7" d="M2116.16,300.61l-50.24-113.02-48.01,112.89-11.96,7.73,32.5.75c1.34-7.02-6.75-2.13-9.49-7.24-.55-1.03-1.06-3.04-.3-5.03l10.18-26.83,43.48.29,10.31,26.16c1.53,3.88-.71,7.91-5.23,8.22-.95.07-2.87.3-3.21.83-.33.51-.25,1.66.04,3.45l42.66-.38c-2.47-5.57-7.66-4.67-10.72-7.83ZM2040.37,264.36l19.67-47.47,20.4,47.51-40.06-.04Z"/>
    <path class="cls-7" d="M1741.02,308.81l-89.09.08-.12-3.95c6.41.22,11.09-4.03,11.08-10.92l-.14-88.81c-.01-7.09-6.42-8.22-12.53-11.73l45.57-1.4-10.49,6.02c-3.53,2.03-3.35,8.74-3.32,12.71l.56,90.96c13.75,1.93,27.75,2.52,40.86-.41,10.7-2.39,14.64-12.66,19.86-22.56,2.18,10.68-.62,20.08-2.23,30.02Z"/>
    <path class="cls-7" d="M1918.96,306.05c-7.94-3.87-11.16-12.8-7.74-19.67,1.69-3.41,6.57-3.33,9.47-2.51,8.25,2.33,2.82,21.56,17.94,21.22,5.51-.12,12.92-5.62,13-13.41l.91-86.47c.09-8.31-5.61-8.2-12.67-11.31,14.37-2.19,31.63-3.53,44.73-.41-7.97,3.73-12.43,3.96-12.48,13.57l-.39,70.83c-.06,10.49-4.91,21.23-13.88,26.71-11.46,7.01-26.53,7.47-38.9,1.44Z"/>
    <g>
      <path class="cls-7" d="M1202.9,193.99c-21.22-3.92-42.42-1.69-64.52-1.43l-4.45-.47c-.6-.07-.52,1.67-.03,3.28,5.88.04,11.15,4.68,11.13,11.83l-.26,84.79c-.01,4.82-1.5,11.23-6.06,12.15l-4.99,1.01c-.61.12-.3,3.45.7,3.44l60.41-.52c30.12-.26,51.97-24.02,54.52-53.68,2.59-30.06-16.48-54.87-46.46-60.41ZM1227.27,265.95c-4.59,25.52-26.04,40.4-51.22,37.05-2.41-.32-5.85,1.16-8.48-.83-1.79-1.37-3.21-4.54-3.22-8.45l-.12-96.29c24.93-2.22,46.97,1.73,57.62,22.97,7.09,14.12,8.36,29.26,5.42,45.56Z"/>
      <path class="cls-7" d="M995.09,213.45l-.97,82.45c-.03,2.5,1.62,5.58,2.74,6.67,1.73,1.68,4.84,2.39,8.08,1.93l.14,4.44-29.56.22c-.53-.76-.67-2.8-.18-4.44,3.31.08,6.22-.4,8.12-1.87,2.24-1.72,3.93-5.43,3.93-9.11l-.03-86.43c0-11.1-12.19-10.94-12.37-12.93-.17-1.82.26-1.94,2.61-2.02l23.77-.77,71.04,83.63c3.73-25.73,1.44-48.28.84-71.88-.2-7.86-12.71-5.41-11.53-10.19.16-.64,20.86-2.38,33.16.43-9.39,3.3-14.04,6.91-14.07,15.67l-.26,100.64c-1.83,1.56-5.75.71-6.79-2.23l-78.71-94.22Z"/>
      <path class="cls-7" d="M1384.66,300.88l-50.84-113.75-45.29,109.31c-2.64,6.37-7.88,6.9-14.77,10.72,12.03,3.64,21.55.74,31.87,1.84.34-1.95.2-3.08-.12-3.62-.32-.55-2.08-.85-3.25-.86-4.44-.05-7.04-4.36-5.5-8.48l9.7-25.74,44.26.06,9.83,25.59c1.05,2.74-.29,6.29-2.2,7.56-1.12.74-2.74,1.66-5.69,1.19-.28.96-.57,2.26-.08,4.24l42.99-.48c-2.7-5.39-7.66-4.57-10.92-7.56ZM1308.5,264.34l19.48-47.51,19.94,46.69-39.41.82Z"/>
      <path class="cls-7" d="M850.49,280.13c2.29,9.63-1.06,18.64-1.54,28.66l-89.36.06c-1.94-6.58,10.06-2.38,10.07-12.91l.02-90.72c0-9.93-9.09-8.4-9.92-9.58-.39-.55-.91-1.96-.67-2.6.19-.53,28.06-2.43,42.73,0-2.04,4.16-8.28,3.26-9.92,5.21-5.85,11.48-2.87,22.76-2.86,34.46l.06,40.22c.01,9.69-2.58,19.24,1.59,29.55l32.21.5c13.6.21,20.77-9.2,27.58-22.84Z"/>
      <path class="cls-7" d="M933.29,308.57l-44.59-.88c10.04-4.51,13.69-6.76,13.69-15.92l.04-84.29c0-8.37-4.46-9.74-13.06-14.33l44.44-.09c-8.36,4.66-12.64,6.6-12.59,14.68l.47,88.1c.02,3.04,1.18,5.54,2.97,7.53,1.37,1.52,6.32-1.3,8.64,5.2Z"/>
    </g>
  </g>
  <g>
    <rect class="cls-7" x="406.96" y="486.05" width="23.23" height="23.13" transform="translate(-.56 .47)"/>
    <g>
      <path class="cls-7" d="M514.98,378.1c40.05,7.71,76.8,22.72,110.87,44.41,31.35,19.96,61.08,43.37,85.87,72.19-31.49-24.75-61.57-48.28-96.27-67.29-29.19-15.98-59.41-27.96-91.83-35.37-52.87-12.08-106.2-6.43-154.74,17.55-15.89,7.85-30.49,16.2-45.68,25.44-20.21,12.28-40.11,23.33-61.58,33.36-23.18,10.83-47.1,17.53-72.55,20.17l-24.93.37c.28-1.53.26-2.42-.03-3.94l17-1.79c27.84-6.27,30.47-33.18,30.47-60.1V137.75c.01-19.78-3.66-40.07-21.41-48.01-8.05-3.6-16.51-4.45-25.16-4.77-1.34-.05-.76-1.35-.8-1.82-.06-.67.18-2.18,1.64-2.18l157,.03.04,4c-18.71.25-37.35,5.51-42.75,24.44-2.63,9.21-3.9,18.22-3.9,28.38l-.2,312.74,57.07-33.26c10.36-6.04,18.44-14.3,21.3-26.22,3.24-6.51,1.54-14.49,4.26-21.06l12.58-30.35,75.57-177.78c.76-1.69,4.66-1.24,6-.4l27.36,61.25,72.46,159.51c-18.39-5.38-35.77-9.9-54.04-11.77l-65.6-149.32-78.36,183.77c50.54-27.76,104.46-37.61,160.34-26.85Z"/>
      <g>
        <path class="cls-7" d="M641.63,539.59l-29.59-.11-83.54-.25c-.87-1.04-.66-2.88-.2-4.1,6.62-.23,14-.74,19.25-5.72,10.17-9.63,3.44-33.53-2.66-48.07l-36.62-87.21,26.24,5.71,29.89,9.81,36.08,74.7c5.73,11.86,12.26,22.59,20.54,32.54,9.66,11.61,22.71,18.32,37.82,18.16l.14,3.91-17.34.62Z"/>
        <path class="cls-7" d="M337.67,539.23l-96.96.02c-.76-1.27-.44-2.55-.41-4.24,16.81.72,31.56-6.49,42.85-19.05,11.43-12.71,19.75-27.21,27.46-42.58l17.96-35.78,14.94-8.62-26.96,63.68c-5.62,16.14-9.22,34.82,6.71,40.23,7.7,2.62,13.29,1.58,15.29,2.84.7.44.82,3.5-.88,3.5Z"/>
      </g>
      <polygon class="cls-7" points="460.98 508.86 438.06 508.85 438.12 486.13 460.95 486.03 460.98 508.86"/>
    </g>
    <polygon class="cls-7" points="460.99 478.31 438.1 478.33 438.15 455.43 460.83 455.1 460.99 478.31"/>
    <polygon class="cls-7" points="430.25 478.33 406.97 478.35 407.03 455.05 430.06 455.12 430.25 478.33"/>
  </g>
</svg>